PathFileType	4	(x/y/z)	S04_PSF_T07.trc
DataRate	CameraRate	NumFrames	NumMarkers	Units	OrigDataRate	OrigDataStartFrame	OrigNumFrames
240	240	8	51	mm	240	374	427
Frame#	Time	Sternum			R.Acromium			L.Acromium			Top.Head			R.ASIS			L.ASIS			R.PSIS			L.PSIS			R.Great.Tro			L.Great.Tro			R.Iliac.Crest			L.Iliac.Crest			V.Sacral			R.Thigh.Upper.Post			R.Thigh.Lower.Ant			R.Thigh.Lower.Post			R.Thigh.Upper.Ant			R.Knee.Lat			R.Knee.Med			R.Shank.Upper.Post			R.Shank.Lower.Ant			R.Shank.Lower.Post			R.Shank.Upper.Ant			R.Ankle.Lat			R.Ankle.Med			R.Heel.Upper			R.Heel.Med			R.Heel.Lat			R.Toe.Lat			R.Toe.Med			R.Toe.Tip			L.Thigh.Upper.Post			L.Thigh.Lower.Ant			L.Thigh.Lower.Post			L.Thigh.Upper.Ant			L.Knee.Lat			L.Knee.Med			L.Shank.Upper.Post			L.Shank.Lower.Ant			L.Shank.Lower.Post			L.Shank.Upper.Ant			L.Ankle.Lat			L.Ankle.Med			L.Heel.Upper			L.Heel.Med			L.Heel.Lat			L.Toe.Lat			L.Toe.Med			L.Toe.Tip			Cervical.Spine			Back			
		X1	Y1	Z1	X2	Y2	Z2	X3	Y3	Z3	X4	Y4	Z4	X5	Y5	Z5	X6	Y6	Z6	X7	Y7	Z7	X8	Y8	Z8	X9	Y9	Z9	X10	Y10	Z10	X11	Y11	Z11	X12	Y12	Z12	X13	Y13	Z13	X14	Y14	Z14	X15	Y15	Z15	X16	Y16	Z16	X17	Y17	Z17	X18	Y18	Z18	X19	Y19	Z19	X20	Y20	Z20	X21	Y21	Z21	X22	Y22	Z22	X23	Y23	Z23	X24	Y24	Z24	X25	Y25	Z25	X26	Y26	Z26	X27	Y27	Z27	X28	Y28	Z28	X29	Y29	Z29	X30	Y30	Z30	X31	Y31	Z31	X32	Y32	Z32	X33	Y33	Z33	X34	Y34	Z34	X35	Y35	Z35	X36	Y36	Z36	X37	Y37	Z37	X38	Y38	Z38	X39	Y39	Z39	X40	Y40	Z40	X41	Y41	Z41	X42	Y42	Z42	X43	Y43	Z43	X44	Y44	Z44	X45	Y45	Z45	X46	Y46	Z46	X47	Y47	Z47	X48	Y48	Z48	X49	Y49	Z49	X50	Y50	Z50	X51	Y51	Z51	

374	1.5542	594.69	1280.1	284.14	463.88	1509.8	453.23	470.94	1491.4	102.76	499.12	1833	263.58	567.27	998.4	412.95	559.46	1011.8	164.29	353.8	1032.6	325.49	359.33	1039.9	244.25	487.74	919.64	483.32	435.65	931.63	106.81	480.96	1092.2	459.99	462.81	1094.7	124.29	334.74	994.75	282.6	580.43	674.34	476.35	679.01	625.79	438.02	613.57	590.73	460.46	647.11	730.34	458.9	656.26	535.28	448.85	639.93	524.51	320.93	597.43	308.73	447.73	674.58	235.9	416.51	604.43	239.18	435.09	664.04	305.63	437.42	629.04	121.3	420.67	659.53	138.21	334.45	574.72	82.816	356.43	592.41	55.433	327.15	580.2	49.166	389.9	742.43	57.807	456.88	790.44	71.457	347.03	843.96	96.781	401.6	392.37	705.05	126.31	458.62	598.35	135.52	388.43	615.56	141.33	457.03	687.36	117.38	411.23	512.93	151.18	415.56	506.19	274.34	299.74	345.8	159.26	358.23	251.4	163.6	296.09	268.01	169.91	361.56	327.57	153.51	313.58	105.45	190.29	321.09	115.26	281.89	238.45	76.367	235.38	244.49	50.147	268.02	241.47	49.926	206.44	424.19	42.419	164.51	457.6	43.778	280.59	514.07	52.585	230.1	418.16	1554.4	279.89	336.31	1298.3	262.07
375	1.5583	599.9	1279.3	284.46	469	1509	453.5	476.37	1490.8	103.04	504.39	1832.3	263.83	572.55	997.67	413.01	564.39	1011.1	164.38	358.99	1032	325.78	364.45	1039.2	244.55	492.96	918.91	483.53	440.28	931.13	106.97	486.2	1091.4	460.19	467.82	1094	124.45	339.89	994.08	282.89	585.31	673.51	476.48	683.98	625.04	438.27	618.52	589.94	460.58	651.98	729.56	459.15	661.76	534.85	449.04	645.47	523.74	321.15	608.13	307.09	448.03	686.99	236.21	416.91	616.84	237.75	435.42	674.79	305.65	437.8	644.4	120.5	421.08	674.43	138.12	334.8	591.08	80.715	356.9	609.3	53.751	327.6	597.28	47.227	390.34	759.29	59.714	457.19	806.9	74.47	347.32	859.8	101.06	401.83	395.65	705.15	126.41	461.2	598.03	135.76	391.11	615.62	141.48	460.16	687.04	117.65	413.14	512.79	151.26	417.48	506.04	274.41	300.81	346.1	159.5	358.97	251.51	163.67	296.88	268.36	170.07	362.6	327.66	153.59	313.77	105.63	190.47	321.32	115.44	282.04	238.55	76.552	235.58	244.58	50.274	268.18	241.54	50.153	206.61	424.21	42.418	164.57	457.7	43.662	280.62	514.17	52.384	230.11	423.45	1553.7	280.12	341.54	1297.7	262.18
376	1.5625	605.13	1278.5	284.79	474.13	1508.2	453.79	481.8	1490.1	103.34	509.67	1831.5	264.1	577.85	996.92	413.07	569.33	1010.3	164.47	364.2	1031.2	326.07	369.58	1038.5	244.84	498.18	918.15	483.75	444.92	930.6	107.12	491.42	1090.6	460.39	472.84	1093.3	124.61	345.05	993.38	283.19	590.14	672.63	476.62	688.89	624.22	438.55	623.41	589.08	460.72	656.82	728.72	459.42	667.2	534.36	449.26	650.94	522.91	321.38	618.76	305.52	448.34	699.28	236.62	417.28	629.15	236.43	435.74	685.41	305.73	438.16	659.61	119.88	421.47	689.17	138.2	335.13	607.33	78.806	357.35	626.06	52.277	328.04	614.24	45.505	390.77	775.95	61.83	457.47	823.12	77.667	347.57	875.4	105.51	402.01	398.95	705.22	126.52	463.81	597.69	136.01	393.84	615.66	141.63	463.32	686.7	117.92	415.1	512.66	151.34	419.45	505.88	274.49	301.91	346.41	159.74	359.72	251.62	163.75	297.7	268.72	170.22	363.67	327.76	153.68	313.97	105.82	190.66	321.56	115.64	282.21	238.65	76.754	235.8	244.68	50.416	268.35	241.61	50.399	206.78	424.24	42.417	164.64	457.8	43.546	280.65	514.27	52.179	230.12	428.74	1553	280.36	346.78	1297	262.31
377	1.5667	610.37	1277.7	285.13	479.28	1507.4	454.09	487.24	1489.4	103.65	514.96	1830.7	264.38	583.15	996.14	413.13	574.29	1009.6	164.57	369.43	1030.5	326.36	374.73	1037.8	245.14	503.43	917.36	483.96	449.58	930.05	107.27	496.65	1089.8	460.59	477.88	1092.6	124.78	350.22	992.64	283.48	594.93	671.7	476.77	693.76	623.33	438.85	628.24	588.18	460.89	661.63	727.82	459.71	672.57	533.81	449.5	656.33	522.02	321.63	629.32	304.02	448.66	711.43	237.11	417.63	641.37	235.22	436.07	695.92	305.87	438.51	674.68	119.43	421.83	703.72	138.42	335.44	623.44	77.086	357.8	642.67	51.006	328.45	631.05	43.994	391.19	792.39	64.141	457.72	839.1	81.032	347.78	890.71	110.12	402.15	402.27	705.28	126.64	466.46	597.34	136.25	396.6	615.69	141.79	466.51	686.36	118.19	417.11	512.51	151.43	421.48	505.71	274.58	303.05	346.73	159.98	360.51	251.74	163.84	298.56	269.11	170.38	364.78	327.85	153.78	314.19	106.02	190.85	321.8	115.85	282.4	238.76	76.976	236.02	244.79	50.578	268.53	241.68	50.665	206.97	424.27	42.417	164.7	457.9	43.43	280.67	514.37	51.97	230.13	434.05	1552.2	280.62	352.03	1296.3	262.45
378	1.5708	615.62	1276.9	285.48	484.43	1506.6	454.41	492.68	1488.7	103.97	520.25	1829.9	264.66	588.47	995.35	413.2	579.26	1008.8	164.67	374.67	1029.7	326.66	379.89	1037.1	245.44	508.69	916.54	484.17	454.26	929.49	107.41	501.88	1088.9	460.8	482.94	1091.9	124.96	355.42	991.88	283.78	599.69	670.74	476.94	698.58	622.38	439.18	633.02	587.22	461.08	666.41	726.86	460	677.88	533.21	449.76	661.65	521.07	321.9	639.79	302.59	448.99	723.42	237.69	417.95	653.47	234.11	436.39	706.31	306.06	438.85	689.56	119.14	422.16	718.07	138.79	335.72	639.38	75.551	358.23	659.1	49.93	328.84	647.7	42.688	391.59	808.59	66.631	457.94	854.8	84.547	347.95	905.74	114.86	402.23	405.63	705.31	126.79	469.16	596.99	136.49	399.42	615.7	141.96	469.74	686	118.46	419.17	512.36	151.53	423.57	505.53	274.68	304.24	347.06	160.23	361.32	251.86	163.94	299.45	269.5	170.54	365.92	327.95	153.88	314.41	106.23	191.05	322.04	116.07	282.6	238.88	77.222	236.26	244.9	50.763	268.72	241.76	50.954	207.16	424.3	42.418	164.77	458.01	43.315	280.69	514.47	51.756	230.14	439.35	1551.4	280.89	357.29	1295.5	262.61
379	1.575	620.89	1276	285.84	489.59	1505.7	454.74	498.12	1488	104.3	525.55	1829.1	264.96	593.8	994.53	413.27	584.25	1008	164.77	379.93	1029	326.96	385.07	1036.4	245.74	513.98	915.7	484.37	458.96	928.9	107.56	507.12	1088	461	488.01	1091.2	125.15	360.63	991.09	284.08	604.43	669.73	477.13	703.38	621.37	439.53	637.77	586.22	461.29	671.19	725.85	460.3	683.15	532.56	450.04	666.9	520.07	322.2	650.17	301.23	449.32	735.26	238.35	418.25	665.45	233.11	436.72	716.57	306.31	439.17	704.26	119	422.47	732.2	139.29	335.97	655.13	74.195	358.65	675.32	49.04	329.21	664.16	41.58	391.98	824.52	69.28	458.11	870.21	88.191	348.07	920.46	119.71	402.26	409.01	705.32	126.95	471.9	596.62	136.74	402.27	615.71	142.13	473	685.62	118.72	421.3	512.21	151.63	425.72	505.35	274.78	305.47	347.41	160.47	362.16	251.98	164.04	300.38	269.92	170.7	367.1	328.04	154	314.65	106.45	191.26	322.3	116.31	282.81	239.01	77.493	236.49	245.02	50.973	268.91	241.84	51.269	207.35	424.33	42.421	164.84	458.12	43.2	280.71	514.58	51.537	230.16	444.67	1550.6	281.18	362.56	1294.8	262.77
380	1.5792	626.17	1275.2	286.2	494.76	1504.8	455.09	503.57	1487.2	104.64	530.86	1828.3	265.28	599.15	993.7	413.33	589.26	1007.1	164.88	385.21	1028.1	327.26	390.26	1035.6	246.05	519.31	914.84	484.58	463.67	928.3	107.7	512.37	1087.1	461.21	493.1	1090.4	125.34	365.86	990.27	284.38	609.16	668.7	477.34	708.16	620.31	439.9	642.5	585.18	461.53	675.96	724.81	460.62	688.38	531.87	450.34	672.09	519.03	322.51	660.45	299.95	449.66	746.92	239.07	418.53	677.29	232.21	437.04	726.7	306.59	439.48	718.75	119.01	422.75	746.09	139.91	336.2	670.67	73.012	359.05	691.31	48.327	329.56	680.39	40.66	392.35	840.18	72.069	458.25	885.31	91.94	348.14	934.86	124.65	402.23	412.43	705.31	127.13	474.69	596.25	136.98	405.18	615.7	142.32	476.3	685.24	118.97	423.48	512.05	151.74	427.94	505.16	274.89	306.76	347.78	160.72	363.03	252.11	164.15	301.34	270.35	170.85	368.32	328.14	154.11	314.89	106.69	191.47	322.55	116.56	283.04	239.16	77.794	236.73	245.14	51.213	269.1	241.92	51.613	207.55	424.36	42.426	164.91	458.24	43.085	280.73	514.69	51.314	230.17	449.99	1549.8	281.49	367.84	1294	262.95
381	1.5833	631.47	1274.3	286.58	499.95	1503.9	455.46	509.03	1486.4	104.99	536.18	1827.4	265.6	604.51	992.86	413.41	594.29	1006.3	164.99	390.5	1027.3	327.57	395.47	1034.8	246.36	524.67	913.96	484.78	468.41	927.67	107.85	517.63	1086.2	461.43	498.21	1089.6	125.54	371.11	989.43	284.69	613.89	667.64	477.57	712.92	619.21	440.28	647.21	584.11	461.8	680.73	723.73	460.93	693.58	531.15	450.66	677.23	517.94	322.85	670.63	298.75	450	758.41	239.86	418.78	688.98	231.42	437.35	736.69	306.92	439.77	733	119.16	423	759.73	140.64	336.41	685.95	71.991	359.44	707.04	47.777	329.89	696.38	39.917	392.7	855.53	74.975	458.34	900.07	95.769	348.16	948.93	129.64	402.14	415.88	705.29	127.34	477.53	595.87	137.22	408.13	615.68	142.51	479.64	684.85	119.22	425.72	511.89	151.86	430.24	504.96	275.01	308.1	348.16	160.95	363.93	252.24	164.26	302.35	270.79	171.01	369.59	328.24	154.24	315.16	106.95	191.68	322.82	116.83	283.26	239.31	78.127	236.98	245.27	51.486	269.3	242.02	51.987	207.75	424.4	42.433	164.98	458.36	42.971	280.74	514.8	51.086	230.18	455.32	1549	281.81	373.13	1293.2	263.15
